# xmcd
#
# Track frame offsets:
#	150
#	21300
#	50673
#	73649
#	88631
#	121191
#	142974
#	160952
#	182104
#	206904
#
# Disc length: 2903 seconds
#
# Revision: 0
# Processed by: cddbd v1.5.2PL0 Copyright (c) Steve Scherf et al.
# Submitted via: audiograbber 1.83.01
#
DISCID=8f0b550a
DTITLE=George Michael - Listen Without Prejudice  MTV Unplugged (Deluxe) - CD1
DYEAR=2017
DGENRE=Variété Internationale
TTITLE0=Praying for Time
TTITLE1=Freedom 90
TTITLE2=They Won't Go When I Go
TTITLE3=Something To Save
TTITLE4=Cowboys and Angels
TTITLE5=Waiting For That Day
TTITLE6=Mothers Pride
TTITLE7=Heal The Pain
TTITLE8=Soul Free
TTITLE9=Waiting (Reprise)
EXTD=
EXTT0=
EXTT1=
EXTT2=
EXTT3=
EXTT4=
EXTT5=
EXTT6=
EXTT7=
EXTT8=
EXTT9=
PLAYORDER=
